PathFileType	4	(X/Y/Z)	C:\Users\WrightLab\Desktop\Jo\P1_boxCal29.trc
DataRate	CameraRate	NumFrames	NumMarkers	Units	OrigDataRate	OrigDataStartFrame	OrigNumFrames
100.00	100.00	      11	19	mm	100.00	577	      1153
Frame#	Time	Headset_Front			Headset_Back			Headset_Left			Headset_Right			Left_Shoulder			Right_Shoulder			Sternum			C7			Left Elbow			Right Elbow			Left Wrist			Right Wrist			Left ASIS			Right ASIS			S2			Left Knee			Right Knee			Left Ankle			Right Ankle			
		X1	Y1	Z1	X2	Y2	Z2	X3	Y3	Z3	X4	Y4	Z4	X5	Y5	Z5	X6	Y6	Z6	X7	Y7	Z7	X8	Y8	Z8	X9	Y9	Z9	X10	Y10	Z10	X11	Y11	Z11	X12	Y12	Z12	X13	Y13	Z13	X14	Y14	Z14	X15	Y15	Z15	X16	Y16	Z16	X17	Y17	Z17	X18	Y18	Z18	X19	Y19	Z19	

577	5.760	-492.52252	1329.19775	-2.15289	-626.26367	1490.75671	-83.06357	-580.10065	1382.65747	-204.34700	-445.33157	1248.48621	-121.90462	-756.72113	1254.62207	-249.65378	-613.28442	1244.30664	98.70248	-584.35431	1127.83850	-94.71924	-796.98572	1288.75110	-40.96511	-763.01306	931.72314	-320.19980	-611.72205	980.41803	201.68671	-547.10992	829.35846	-327.78967	-416.51883	823.80621	139.44214	-617.52905	848.20654	-193.20334	-557.40167	852.74695	1.12731	-893.19635	892.75964	5.81078	-738.83215	445.31876	-260.16559	-593.54865	446.71359	100.53577	-768.13232	81.64251	-293.24158	-711.19397	-35.22698	-108.34691	
578	5.770	-492.71634	1329.46338	-5.62132	-625.97601	1491.06470	-88.02368	-577.86853	1382.27466	-208.51532	-444.08655	1248.85278	-124.27067	-752.98987	1254.48181	-256.04135	-615.41101	1245.15881	94.94975	-582.76129	1126.64172	-95.55630	-796.40558	1287.64124	-48.26628	-757.25647	931.92908	-327.51321	-615.53406	979.66577	196.97568	-541.36145	828.14752	-330.67914	-420.03543	823.91199	135.83649				-558.68628	852.96729	-1.11471	-894.26611	893.72894	-2.50750	-738.66138	445.50992	-263.46445	-594.66888	447.46848	97.85574	-767.64075	81.65137	-293.71671				
579	5.780	-493.37631	1329.23853	-9.75004	-625.67426	1491.32166	-93.33500	-576.63269	1382.68359	-213.01126	-443.33160	1248.71997	-128.07930	-749.77979	1254.24268	-262.51544	-617.17059	1245.32104	89.79230	-582.20233	1127.47656	-100.91294	-796.93719	1289.11121	-55.02029	-750.73883	932.26532	-334.02438	-620.31281	980.39160	191.85509	-536.69110	826.71185	-333.45255	-423.21426	824.25696	132.34454	-613.14020	848.13898	-201.16275	-561.48926	852.65717	-3.75998	-895.31189	893.25012	-9.33245	-738.10901	445.69485	-268.22183	-594.79749	447.70316	93.29613	-767.78485	81.14235	-294.62402	-711.20087	-34.12469	-112.06622	
580	5.790	-493.28180	1330.47766	-13.00714	-625.63873	1491.19177	-97.93381	-575.87451	1382.92712	-218.05334	-442.84332	1249.22717	-130.67094	-746.06384	1254.10559	-268.48050	-618.59833	1246.23584	86.76360	-581.95337	1127.68506	-104.74200	-796.50568	1289.03760	-61.26561	-745.19623	932.27197	-339.79385	-624.59552	980.77020	187.08202	-531.23535	825.94379	-337.21307	-426.83057	824.38409	128.44893	-610.97156	848.17841	-204.67966	-561.98871	853.53583	-6.20490	-895.95856	894.28625	-17.01138	-737.50140	446.48175	-272.31662	-594.87341	447.86850	90.22039	-767.47900	80.05543	-294.63422				
581	5.800	-493.40976	1330.32874	-16.14711	-624.90015	1490.77991	-102.49892	-573.92371	1382.13159	-221.61406	-441.95761	1249.03589	-133.83144	-742.51154	1254.31104	-274.63495	-620.91772	1247.32385	81.55990	-581.47565	1127.64624	-107.71880	-796.47937	1289.26953	-67.94968	-739.39246	931.89862	-345.57458	-628.94751	981.03522	181.64279	-526.28687	825.25928	-340.43243	-430.09302	824.69562	125.12048	-609.38562	848.19037	-208.83882	-563.59167	853.24225	-8.25397	-896.46826	893.93976	-23.70444	-737.51569	446.73297	-275.88986	-596.16132	448.76862	87.45713	-767.72980	79.50879	-294.88184				
582	5.810	-493.65231	1330.76013	-20.81831	-624.56927	1490.95276	-107.28161	-573.13263	1382.54309	-225.63910	-440.92807	1249.28381	-136.37939	-738.98718	1253.92407	-280.09503	-622.36621	1247.50439	77.89677	-580.48773	1127.13379	-109.77573	-796.54645	1289.31311	-73.68438	-733.85925	931.62042	-350.94131	-633.49426	981.05231	177.81734	-521.95221	824.80707	-342.76129	-434.07712	824.48511	122.50835	-608.04669	848.14349	-212.62531	-564.39337	854.14063	-10.90624	-898.27325	895.14404	-31.05075	-736.20148	447.49097	-280.27200	-595.60040	450.40787	83.53949	-767.52637	79.57007	-295.09274				
583	5.820	-492.94849	1331.81885	-23.17309	-623.98950	1491.31055	-111.74063	-571.89197	1382.01270	-230.00826	-440.31219	1249.73767	-139.08638	-735.89838	1254.26221	-285.48917	-624.54346	1247.82678	73.48109	-579.76794	1128.07214	-114.75726	-795.77722	1290.13159	-80.03485	-728.63074	931.68359	-356.99350	-637.00031	982.09973	173.11644	-517.61908	824.45215	-345.68283	-436.71121	824.46259	118.62083	-605.89447	848.29559	-215.96956	-568.60364	852.39453	-13.93051	-898.44836	895.84918	-36.97516	-735.20856	447.45605	-284.65454	-595.87573	452.18576	81.70354	-767.53522	78.66508	-295.24176				
584	5.830	-493.06747	1331.76685	-26.92119	-623.47113	1491.58362	-115.91943	-570.16113	1381.66943	-233.30817	-439.43500	1249.74268	-140.85307	-732.75055	1254.72974	-290.38864	-626.33301	1248.46948	70.41257	-579.48785	1127.47095	-115.93167	-795.65106	1290.03406	-85.98287	-723.73181	932.03638	-361.66449	-640.24060	982.09924	168.58496	-512.99707	824.65967	-348.00610	-440.31348	824.51117	116.02518	-603.86176	848.22229	-218.14198	-571.28888	852.38489	-16.10548	-900.32959	896.97247	-44.06041	-734.27673	447.13715	-287.85571	-596.37024	453.03992	77.89944	-767.25525	78.69331	-296.24521				
585	5.840	-493.40994	1332.49158	-30.02250	-622.84741	1491.99060	-121.18777	-569.03113	1381.61780	-237.28862	-438.91727	1249.24976	-143.31548	-729.44672	1254.65894	-294.86017	-627.84454	1249.03345	66.68863	-578.89850	1128.59045	-120.62017	-795.48669	1290.35791	-91.62798	-719.44458	932.04846	-366.38593	-643.61420	982.56537	165.61885	-508.46277	824.45276	-350.58893	-442.97955	824.36353	113.24905	-603.51953	847.82019	-220.96420	-571.28876	853.31171	-18.06034	-901.25525	897.13336	-50.36145	-733.08258	446.55527	-290.88708	-596.09521	455.38342	75.89671	-767.21289	78.10793	-296.25854	-656.89172	-38.99615	185.56981	
586	5.850	-493.28101	1333.80884	-32.50516	-622.35895	1492.29358	-125.60032	-567.34088	1381.00952	-240.17540	-438.13712	1249.65979	-145.96147	-726.88330	1255.03174	-299.30930	-631.01715	1249.29407	65.41050	-578.60284	1128.20129	-121.27006	-794.81311	1290.82593	-96.89370	-714.98969	932.30048	-371.26651	-645.75830	983.42029	161.82352	-504.54990	824.86755	-352.81543	-445.31705	824.58606	110.30672				-574.91779	853.11780	-19.77563	-904.04260	898.69232	-58.44813	-732.16730	445.44495	-293.67065	-596.80988	456.99985	71.89401	-766.75580	77.52845	-297.01028	-654.44971	-37.17340	183.99959	
587	5.860	-493.28067	1333.71704	-36.31720	-621.85217	1492.61255	-129.98453	-566.52100	1381.25537	-244.48004	-437.81635	1249.71191	-147.46362	-723.69537	1255.20117	-304.20248	-631.46375	1249.25781	60.29385	-577.56201	1128.74500	-125.75066	-794.25189	1291.03772	-102.35059	-710.21198	933.13147	-375.96500	-648.78589	982.51196	156.81668	-500.37680	825.69788	-355.17148	-447.76901	824.47980	108.32500	-598.33569	849.05524	-225.34476	-575.37952	853.77808	-22.74288	-904.99854	899.73346	-65.69867	-731.15106	444.62637	-295.36667	-597.15656	458.75674	68.27637	-766.41382	77.09888	-296.97733	-653.57666	-37.49093	181.86406	
